<svg width="1600" height="1000" viewBox="0 0 1600 1000" fill="none" xmlns="http://www.w3.org/2000/svg">
  <defs>
    <linearGradient id="bg" x1="0" y1="0" x2="1600" y2="1000" gradientUnits="userSpaceOnUse">
      <stop stop-color="#05070D"/>
      <stop offset="0.55" stop-color="#111723"/>
      <stop offset="1" stop-color="#05070D"/>
    </linearGradient>
    <radialGradient id="halo" cx="0" cy="0" r="1" gradientUnits="userSpaceOnUse" gradientTransform="translate(820 420) rotate(90) scale(430 290)">
      <stop stop-color="#9CC8FF" stop-opacity="0.35"/>
      <stop offset="1" stop-color="#9CC8FF" stop-opacity="0"/>
    </radialGradient>
    <linearGradient id="skin" x1="0" y1="280" x2="0" y2="900" gradientUnits="userSpaceOnUse">
      <stop stop-color="#E2BFA3"/>
      <stop offset="1" stop-color="#B88364"/>
    </linearGradient>
    <linearGradient id="silk" x1="700" y1="700" x2="900" y2="875" gradientUnits="userSpaceOnUse">
      <stop stop-color="#1A1D24"/>
      <stop offset="0.5" stop-color="#06080D"/>
      <stop offset="1" stop-color="#1B1F27"/>
    </linearGradient>
    <linearGradient id="shine" x1="700" y1="720" x2="890" y2="855" gradientUnits="userSpaceOnUse">
      <stop stop-color="white" stop-opacity="0.35"/>
      <stop offset="1" stop-color="white" stop-opacity="0"/>
    </linearGradient>
    <filter id="soft" x="0" y="0" width="1600" height="1000" filterUnits="userSpaceOnUse" color-interpolation-filters="sRGB">
      <feGaussianBlur stdDeviation="40"/>
    </filter>
  </defs>

  <rect width="1600" height="1000" fill="url(#bg)"/>
  <ellipse cx="820" cy="420" rx="380" ry="280" fill="url(#halo)"/>

  <g opacity="0.35" filter="url(#soft)">
    <path d="M140 820C420 640 1120 640 1460 850" stroke="#7CA8D7" stroke-width="3"/>
    <path d="M130 860C420 680 1100 690 1470 900" stroke="#7CA8D7" stroke-width="2"/>
  </g>

  <g transform="translate(0 -10)">
    <ellipse cx="800" cy="205" rx="78" ry="95" fill="url(#skin)"/>
    <path d="M640 450C640 330 710 260 800 260C890 260 960 330 960 450V650C960 770 890 840 800 840C710 840 640 770 640 650V450Z" fill="url(#skin)"/>
    <path d="M610 435C610 355 648 305 705 298C732 295 748 323 742 348C727 406 693 470 650 518C633 537 610 515 610 490V435Z" fill="url(#skin)"/>
    <path d="M990 435C990 355 952 305 895 298C868 295 852 323 858 348C873 406 907 470 950 518C967 537 990 515 990 490V435Z" fill="url(#skin)"/>

    <path d="M675 662C706 686 750 698 800 698C850 698 894 686 925 662V788C898 829 852 855 800 855C748 855 702 829 675 788V662Z" fill="url(#silk)"/>
    <path d="M675 662C705 640 748 628 800 628C852 628 895 640 925 662V704C893 682 850 670 800 670C750 670 707 682 675 704V662Z" fill="#0C0F16"/>
    <path d="M700 712C730 698 764 691 800 691C836 691 870 698 900 712" stroke="url(#shine)" stroke-width="8" stroke-linecap="round" opacity="0.55"/>

    <path d="M730 302C754 283 775 275 800 275C825 275 846 283 870 302" stroke="#B88467" stroke-width="14" stroke-linecap="round" opacity="0.35"/>
    <path d="M730 535C753 550 775 558 800 558C825 558 847 550 870 535" stroke="#8D5E45" stroke-width="10" stroke-linecap="round" opacity="0.32"/>
  </g>
</svg>
